<svg xmlns="http://www.w3.org/2000/svg" xmlns:xlink="http://www.w3.org/1999/xlink" viewBox="0 0 584.87 170"><defs><clipPath id="a"><path d="M137.31,78.47,91.55,124.23,137.31,170H85L65.39,150.39h0L39.23,124.23,85,78.47ZM85,0,0,85l26.16,26.16L137.31,0Z" style="fill:none"></path></clipPath><linearGradient id="e" x1="8320.06" y1="-4870.76" x2="8397.98" y2="-4792.84" gradientTransform="matrix(0.25, 0, 0, -0.25, -2007, -1062.25)" gradientUnits="userSpaceOnUse"><stop offset="0" stop-color="#1a237e" stop-opacity="0.4"></stop><stop offset="1" stop-color="#1a237e" stop-opacity="0"></stop></linearGradient><radialGradient id="g" cx="8032.95" cy="-4293.56" r="837.12" gradientTransform="matrix(0.25, 0, 0, -0.25, -1995.05, -1057)" gradientUnits="userSpaceOnUse"><stop offset="0" stop-color="#fff" stop-opacity="0.1"></stop><stop offset="1" stop-color="#fff" stop-opacity="0"></stop></radialGradient></defs><path d="M207.29,37h57.35V48.24H218.93V82.19h41.28V93.27H218.93v43H207.29Z" style="fill:#757575"></path><path d="M276.76,37h11.78v99.2H276.76Z" style="fill:#757575"></path><path d="M308.57,130.94q-6.72-7.48-6.72-20.93V65.55h11.77v42.67q0,10.13,4.58,14.83t12.32,4.71a18.27,18.27,0,0,0,10.59-3.18,21.52,21.52,0,0,0,7.2-8.32,23.73,23.73,0,0,0,2.57-10.81V65.55h11.78v70.66H351.43V126h-.55a23.32,23.32,0,0,1-9.29,8.87,27.18,27.18,0,0,1-13.58,3.6Q315.31,138.43,308.57,130.94Z" style="fill:#757575"></path><path d="M397.19,137a18.15,18.15,0,0,1-6.17-3.8,17.31,17.31,0,0,1-4.15-6.21,23.4,23.4,0,0,1-1.39-8.61V76.22H373.15V65.55h12.33V45.6h11.77V65.55h17.18V76.22H397.25v39.37c0,4,.74,6.89,2.22,8.78q2.63,3.12,7.62,3.12a14.3,14.3,0,0,0,7.76-2.36v11.5a18.56,18.56,0,0,1-4.23,1.39,30.4,30.4,0,0,1-5.47.41A22.07,22.07,0,0,1,397.19,137Z" style="fill:#757575"></path><path d="M445.87,137a18.11,18.11,0,0,1-6.16-3.8,17.33,17.33,0,0,1-4.16-6.21,23.6,23.6,0,0,1-1.38-8.61V76.22H421.84V65.55h12.33V45.6h11.77V65.55h17.18V76.22H445.94v39.37c0,4,.74,6.89,2.21,8.78q2.64,3.12,7.63,3.12a14.24,14.24,0,0,0,7.75-2.36v11.5a18.48,18.48,0,0,1-4.22,1.39,30.44,30.44,0,0,1-5.48.41A22.28,22.28,0,0,1,445.87,137Z" style="fill:#757575"></path><path d="M485.7,133.57a33.66,33.66,0,0,1-12.53-13.37,40.56,40.56,0,0,1-4.51-19.2,42.23,42.23,0,0,1,4.22-18.84,34.2,34.2,0,0,1,12-13.71,32,32,0,0,1,18-5.12,33.94,33.94,0,0,1,18,4.63A30.75,30.75,0,0,1,532.6,80.79a41.33,41.33,0,0,1,4.09,18.71,13.69,13.69,0,0,1-.42,3.6H480.44a27.89,27.89,0,0,0,3.89,13.58,22.51,22.51,0,0,0,8.79,8.31,23.79,23.79,0,0,0,11.15,2.77q13.58,0,20.92-12.74l10,4.85a35.56,35.56,0,0,1-12.4,13.59q-7.83,5-18.91,5A34.59,34.59,0,0,1,485.7,133.57Zm38.51-40.18a23.11,23.11,0,0,0-2.5-8.87,19,19,0,0,0-7-7.48,21.88,21.88,0,0,0-12-3.05,19.9,19.9,0,0,0-14.06,5.34,25.64,25.64,0,0,0-7.55,14.06Z" style="fill:#757575"></path><path d="M544.31,65.55h11.23V76.91h.55a19.17,19.17,0,0,1,8-9.7,22.47,22.47,0,0,1,12.47-3.89,20.58,20.58,0,0,1,8.31,1.53V77.46a22,22,0,0,0-10-2.21,16.51,16.51,0,0,0-9.42,2.91,21.17,21.17,0,0,0-6.8,7.84,22.6,22.6,0,0,0-2.56,10.63v39.58H544.32V65.55Z" style="fill:#757575"></path><g style="clip-path:url(#a)"><image width="128" height="99" transform="translate(30.91 70.88) scale(0.96)" style="opacity:0.20000000298023224"></image><polygon points="137.31 78.47 137.31 78.47 137.31 78.47 85 78.47 39.24 124.24 65.39 150.39 137.31 78.47" style="fill:#54c5f8"></polygon></g><g style="clip-path:url(#a)"><polygon points="26.16 111.16 0 85 85 0 137.31 0 26.16 111.16" style="fill:#54c5f8"></polygon></g><g style="clip-path:url(#a)"><polygon points="65.39 150.39 85 170 137.31 170 137.31 170 91.53 124.24 65.39 150.39" style="fill:#01579b"></polygon></g><g style="clip-path:url(#a)"><polygon points="65.39 150.39 104.18 136.96 91.53 124.24 65.39 150.39" style="fill:url(#e)"></polygon></g><g style="clip-path:url(#a)"><rect x="46.89" y="105.74" width="36.98" height="36.98" transform="translate(-68.7 82.62) rotate(-45)" style="fill:#29b6f6"></rect></g><path d="M137.31,78.47,91.55,124.23,137.31,170H85L65.39,150.39h0L39.23,124.23,85,78.47ZM85,0,0,85l26.16,26.16L137.31,0Z" style="fill:url(#g)"></path></svg>